<!--
  - Copyright (c) 2025–2026 Paul Viandier
  - All rights reserved.
  -
  - This source code is proprietary.
  - Commercial use, redistribution, or modification is strictly prohibited
  - without prior written permission.
  -
  - See the LICENSE file in the project root for full license terms.
  -->

<svg xmlns="http://www.w3.org/2000/svg" viewBox="0 0 640 480">
    <rect width="640" height="480" fill="#006C35"/>
    <g fill="#fff" transform="translate(320,200)">
        <rect x="-150" y="-15" width="300" height="8" rx="2"/>
        <rect x="-150" y="5" width="300" height="8" rx="2"/>
        <rect x="-5" y="-50" width="10" height="70" rx="2"/>
        <rect x="-150" y="-50" width="10" height="35" rx="2"/>
        <rect x="140" y="-50" width="10" height="35" rx="2"/>
        <rect x="-100" y="-50" width="10" height="25" rx="2"/>
        <rect x="90" y="-50" width="10" height="25" rx="2"/>
        <rect x="-50" y="-50" width="10" height="30" rx="2"/>
        <rect x="40" y="-50" width="10" height="30" rx="2"/>
    </g>
    <g transform="translate(320,310)">
        <rect x="-30" y="-22" width="60" height="44" rx="4" fill="none" stroke="#fff" stroke-width="4"/>
        <rect x="-15" y="-8" width="30" height="16" rx="2" fill="#fff"/>
    </g>
</svg>
