<!--
  - Copyright (c) 2025–2026 Paul Viandier
  - All rights reserved.
  -
  - This source code is proprietary.
  - Commercial use, redistribution, or modification is strictly prohibited
  - without prior written permission.
  -
  - See the LICENSE file in the project root for full license terms.
  -->

<svg xmlns="http://www.w3.org/2000/svg" style="display: none;">
    <symbol id="icon-html" viewBox="0 0 32 32">
        <path d="M6 28L4 3H28L26 28L16 31L6 28Z" fill="#E44D26"/>
        <path d="M26 5H16V29.5L24 27L26 5Z" fill="#F16529"/>
        <path d="M9.5 17.5L8.5 8H24L23.5 11H11.5L12 14.5H23L22 24L16 26L10 24L9.5 19H12.5L13 21.5L16 22.5L19 21.5L19.5 17.5H9.5Z"
              fill="white"/>
    </symbol>

    <symbol id="icon-html5" viewBox="0 0 32 32">
        <path d="M6 28L4 3H28L26 28L16 31L6 28Z" fill="#E44D26"/>
        <path d="M26 5H16V29.5L24 27L26 5Z" fill="#F16529"/>
        <path d="M9.5 17.5L8.5 8H24L23.5 11H11.5L12 14.5H23L22 24L16 26L10 24L9.5 19H12.5L13 21.5L16 22.5L19 21.5L19.5 17.5H9.5Z"
              fill="white"/>
    </symbol>

    <symbol id="icon-javascript" viewBox="0 0 512 512">
        <rect width="512" height="512" rx="15%" fill="#f7df1e"/>
        <path d="M324 370c10 17 24 29 47 29c20 0 33-10 33 -24c0-16 -13 -22 -35 -32l-12-5c-35-15 -58 -33 -58 -72c0-36 27 -64 70 -64c31 0 53 11 68 39l-37 24c-8-15 -17 -21 -31 -21c-14 0-23 9 -23 21c0 14 9 20 30 29l12 5c41 18 64 35 64 76c0 43-34 67 -80 67c-45 0-74 -21 -88 -49zm-170 4c8 13 14 25 31 25c16 0 26-6 26 -30V203h48v164c0 50-29 72 -72 72c-39 0-61 -20 -72 -44z"
              fill="black"/>
    </symbol>

    <symbol id="icon-typescript" viewBox="0 0 512 512">
        <rect width="512" height="512" rx="15%" fill="#3178c6"/>
        <path fill="#ffffff"
              d="m233 284h64v-41H118v41h64v183h51zm84 173c8.1 4.2 18 7.3 29 9.4s23 3.1 35 3.1c12 0 23-1.1 34-3.4c11-2.3 20-6.1 28-11c8.1-5.3 15-12 19-21s7.1-19 7.1-32c0-9.1-1.4-17-4.1-24s-6.6-13-12-18c-5.1-5.3-11-10-18-14s-15-8.2-24-12c-6.6-2.7-12-5.3-18-7.9c-5.2-2.6-9.7-5.2-13-7.8c-3.7-2.7-6.5-5.5-8.5-8.4c-2-3-3-6.3-3-10c0-3.4.89-6.5 2.7-9.3s4.3-5.1 7.5-7.1c3.2-2 7.2-3.5 12-4.6c4.7-1.1 9.9-1.6 16-1.6c4.2 0 8.6.31 13 .94c4.6.63 9.3 1.6 14 2.9c4.7 1.3 9.3 2.9 14 4.9c4.4 2 8.5 4.3 12 6.9v-47c-7.6-2.9-16-5.1-25-6.5s-19-2.1-31-2.1c-12 0-23 1.3-34 3.8s-20 6.5-28 12c-8.1 5.4-14 12-19 21c-4.7 8.4-7 18-7 30c0 15 4.3 28 13 38c8.6 11 22 19 39 27c6.9 2.8 13 5.6 19 8.3s11 5.5 15 8.4c4.3 2.9 7.7 6.1 10 9.5c2.5 3.4 3.8 7.4 3.8 12c0 3.2-.78 6.2-2.3 9s-3.9 5.2-7.1 7.2s-7.1 3.6-12 4.8c-4.7 1.1-10 1.7-17 1.7c-11 0-22-1.9-32-5.7c-11-3.8-21-9.5-28.1-15.44z"/>
    </symbol>

    <symbol id="icon-css" viewBox="0 0 32 32">
        <path d="M6 28L4 3H28L26 28L16 31L6 28Z" fill="#1172B8"/>
        <path d="M26 5H16V29.5L24 27L26 5Z" fill="#33AADD"/>
        <path d="M19.5 17.5H9.5L9 14L17 11.5H9L8.5 8.5H24L23.5 12L17 14.5H23L22 24L16 26L10 24L9.5 19H12.5L13 21.5L16 22.5L19 21.5L19.5 17.5Z"
              fill="white"/>
    </symbol>

    <symbol id="icon-nextjs" viewBox="0 0 24 24">
        <g clip-path="url(#clip0_nextjs)">
            <path d="M11.2141 0.00645944C11.1625 0.0111515 10.9982 0.0275738 10.8504 0.039304C7.44164 0.346635 4.24868 2.18593 2.22639 5.01291C1.10029 6.58476 0.380059 8.36775 0.107918 10.2563C0.0117302 10.9156 0 11.1103 0 12.0041C0 12.898 0.0117302 13.0927 0.107918 13.7519C0.760117 18.2587 3.96716 22.0452 8.31672 23.4481C9.0956 23.6991 9.91672 23.8704 10.8504 23.9736C11.2141 24.0135 12.7859 24.0135 13.1496 23.9736C14.7613 23.7953 16.1267 23.3965 17.4733 22.7091C17.6798 22.6035 17.7196 22.5754 17.6915 22.5519C17.6727 22.5378 16.793 21.3578 15.7372 19.9314L13.8182 17.339L11.4135 13.7801C10.0903 11.8235 9.00176 10.2235 8.99238 10.2235C8.98299 10.2211 8.97361 11.8024 8.96891 13.7331C8.96188 17.1138 8.95953 17.2499 8.9173 17.3296C8.85631 17.4446 8.80938 17.4915 8.71085 17.5431C8.63578 17.5807 8.57009 17.5877 8.21584 17.5877H7.80997L7.70205 17.5197C7.63167 17.4751 7.58006 17.4164 7.54487 17.3484L7.4956 17.2428L7.50029 12.539L7.50733 7.83285L7.58006 7.74136C7.6176 7.69209 7.69736 7.62875 7.75367 7.59825C7.84985 7.55133 7.88739 7.54664 8.29325 7.54664C8.77185 7.54664 8.85161 7.5654 8.97595 7.70147C9.01114 7.73901 10.3132 9.7003 11.871 12.0628C13.4287 14.4252 15.5589 17.651 16.6053 19.2346L18.5056 22.1132L18.6018 22.0499C19.4534 21.4962 20.3543 20.7079 21.0674 19.8868C22.5853 18.1437 23.5636 16.0182 23.8921 13.7519C23.9883 13.0927 24 12.898 24 12.0041C24 11.1103 23.9883 10.9156 23.8921 10.2563C23.2399 5.74957 20.0328 1.96306 15.6833 0.560125C14.9161 0.311445 14.0997 0.140184 13.1848 0.036958C12.9595 0.0134976 11.4088 -0.0123089 11.2141 0.00645944ZM16.1267 7.26511C16.2393 7.32142 16.3308 7.42933 16.3636 7.54194C16.3824 7.60294 16.3871 8.90734 16.3824 11.8469L16.3754 16.0651L15.6317 14.9249L14.8856 13.7848V10.7185C14.8856 8.73608 14.895 7.62171 14.9091 7.56775C14.9466 7.43637 15.0287 7.33315 15.1413 7.27215C15.2375 7.22288 15.2727 7.21819 15.6411 7.21819C15.9883 7.21819 16.0493 7.22288 16.1267 7.26511Z"
                  fill="currentColor"/>
        </g>
        <defs>
            <clipPath id="clip0_nextjs">
                <rect width="24" height="24"/>
            </clipPath>
        </defs>
    </symbol>

    <symbol id="icon-nodejs" viewBox="-16.5 0 289 289">
        <path d="M127.999999,288.463771 C124.024844,288.463771 120.314699,287.403728 116.869564,285.548656 L81.6231884,264.612838 C76.32298,261.697724 78.9730854,260.637682 80.5631458,260.107661 C87.7184259,257.72257 89.0434775,257.192547 96.4637688,252.952381 C97.2587979,252.422361 98.3188405,252.687372 99.1138718,253.217392 L126.144927,269.383024 C127.20497,269.913045 128.530021,269.913045 129.325053,269.383024 L235.064182,208.165634 C236.124225,207.635611 236.654245,206.575571 236.654245,205.250519 L236.654245,83.0807467 C236.654245,81.7556929 236.124225,80.6956526 235.064182,80.1656324 L129.325053,19.2132506 C128.26501,18.6832305 126.939959,18.6832305 126.144927,19.2132506 L20.4057954,80.1656324 C19.3457551,80.6956526 18.8157349,82.0207041 18.8157349,83.0807467 L18.8157349,205.250519 C18.8157349,206.31056 19.3457551,207.635611 20.4057954,208.165634 L49.2919247,224.861286 C64.9275364,232.811595 74.7329196,223.536234 74.7329196,214.260871 L74.7329196,93.681159 C74.7329196,92.0910985 76.0579711,90.5010358 77.9130428,90.5010358 L91.4285716,90.5010358 C93.0186343,90.5010358 94.6086948,91.8260873 94.6086948,93.681159 L94.6086948,214.260871 C94.6086948,235.196689 83.2132512,247.387164 63.3374737,247.387164 C57.2422362,247.387164 52.4720502,247.387164 38.9565214,240.761906 L11.1304347,224.861286 C4.24016581,220.886129 5.68434189e-14,213.46584 5.68434189e-14,205.515528 L5.68434189e-14,83.3457557 C5.68434189e-14,75.3954465 4.24016581,67.9751552 11.1304347,64.0000006 L116.869564,2.78260752 C123.494824,-0.927535841 132.505176,-0.927535841 139.130436,2.78260752 L244.869565,64.0000006 C251.759834,67.9751552 256,75.3954465 256,83.3457557 L256,205.515528 C256,213.46584 251.759834,220.886129 244.869565,224.861286 L139.130436,286.078676 C135.685299,287.668739 131.710145,288.463771 127.999999,288.463771 L127.999999,288.463771 Z M160.596274,204.455488 C114.219461,204.455488 104.679089,183.254659 104.679089,165.233955 C104.679089,163.643893 106.004141,162.053832 107.859212,162.053832 L121.639752,162.053832 C123.229813,162.053832 124.554864,163.113872 124.554864,164.703935 C126.674947,178.749484 132.770187,185.639753 160.861283,185.639753 C183.122154,185.639753 192.662526,180.604556 192.662526,168.67909 C192.662526,161.788821 190.012423,156.753624 155.296065,153.308489 C126.409938,150.393375 108.389235,144.033126 108.389235,120.977226 C108.389235,99.5113875 126.409938,86.7908901 156.621119,86.7908901 C190.542443,86.7908901 207.238095,98.4513472 209.358178,123.89234 C209.358178,124.687371 209.093167,125.482403 208.563147,126.277434 C208.033127,126.807454 207.238095,127.337474 206.443064,127.337474 L192.662526,127.337474 C191.337475,127.337474 190.012423,126.277434 189.747412,124.952382 C186.567289,110.376813 178.351966,105.606625 156.621119,105.606625 C132.240165,105.606625 129.325053,114.086957 129.325053,120.447205 C129.325053,128.132506 132.770187,130.5176 165.631471,134.757766 C198.227744,138.997931 213.598344,145.093169 213.598344,167.884058 C213.333333,191.20497 194.252589,204.455488 160.596274,204.455488 L160.596274,204.455488 Z"
              fill="#539E43"/>
    </symbol>

    <symbol id="icon-git" viewBox="0 0 32 32">
        <path d="M2.58536 17.4132C1.80488 16.6327 1.80488 15.3673 2.58536 14.5868L14.5868 2.58536C15.3673 1.80488 16.6327 1.80488 17.4132 2.58536L29.4146 14.5868C30.1951 15.3673 30.1951 16.6327 29.4146 17.4132L17.4132 29.4146C16.6327 30.1951 15.3673 30.1951 14.5868 29.4146L2.58536 17.4132Z"
              fill="#EE513B"/>
        <path d="M12.1489 5.06152L10.9336 6.27686L14.0725 9.41577C13.9455 9.68819 13.8746 9.99201 13.8746 10.3124C13.8746 11.222 14.4461 11.9981 15.2496 12.3012V19.9798C14.4461 20.2829 13.8746 21.059 13.8746 21.9686C13.8746 23.1422 14.826 24.0936 15.9996 24.0936C17.1732 24.0936 18.1246 23.1422 18.1246 21.9686C18.1246 21.144 17.6549 20.429 16.9684 20.0768V12.3117L19.9689 15.3122C19.8481 15.5791 19.7809 15.8754 19.7809 16.1874C19.7809 17.361 20.7323 18.3124 21.9059 18.3124C23.0795 18.3124 24.0309 17.361 24.0309 16.1874C24.0309 15.0138 23.0795 14.0624 21.9059 14.0624C21.6778 14.0624 21.4582 14.0983 21.2522 14.1648L18.0297 10.9423C18.0914 10.7433 18.1246 10.5317 18.1246 10.3124C18.1246 9.13878 17.1732 8.18738 15.9996 8.18738C15.7803 8.18738 15.5688 8.22061 15.3697 8.2823L12.1489 5.06152Z"
              fill="black"/>
    </symbol>

    <symbol id="icon-cybersecurity" viewBox="0 0 72 72">
        <path fill="#D0CFCE"
              d="M35.9899,10.9064c-11.0457,0-20,4.4773-20,10l0.0261,0.2749c2.9513,30.53,18.6744,39.0674,19.8983,39.6877 l0.0756,0.0374c0,0,17-8,20-40C56.5055,15.4078,47.0356,10.9064,35.9899,10.9064z M35.992,54.884l-0.0604-0.0299 c-0.978-0.4957-13.5423-7.318-15.9006-31.7145L20.01,22.9201c0-4.4133,7.1553-7.991,15.9819-7.991 c8.8265,0,16.3938,3.5969,15.9819,7.991C49.5766,48.4912,35.992,54.884,35.992,54.884z"/>
        <path fill="#EA5A47"
              d="M35,17.9064l3,4l-3,4l3,4l-3,4l3,4l-3,4l3,4l-3,4l1,5.2597c0,0-15-11-16-32c0,0,0-8,16-8L35,17.9064z"/>
        <path fill="#D22F27"
              d="M36,15.1661l-1,2.7403l3,4l-3,4l3,4l-3,4l3,4l-3,4l3,4l-3,4l1.002,4.9774 c0,0,13.8441-8.9583,15.9819-31.9638C51.9839,22.92,51.1505,15.9498,36,15.1661z"/>
        <path fill="none" stroke="#000000" stroke-linecap="round" stroke-linejoin="round" stroke-miterlimit="10"
              stroke-width="2"
              d="M35.9245,60.8691c-1.2239-0.6204-16.947-9.1579-19.8983-39.6878L16,20.9064c0-5.5228,8.9543-10,20-10s20.5155,4.5013,20,10 c-3,32-20,40-20,40L35.9245,60.8691z"/>
        <path fill="none" stroke="#000000" stroke-linecap="round" stroke-linejoin="round" stroke-miterlimit="10"
              stroke-width="2"
              d="M35.9417,54.854c-0.978-0.4958-13.5423-7.318-15.9006-31.7144L20.0201,22.92c0-4.4133,7.1553-7.991,15.9819-7.991 s16.3938,3.5969,15.9819,7.991C49.5866,48.4911,36.002,54.8838,36.002,54.8838L35.9417,54.854z"/>
    </symbol>

    <symbol id="icon-react" viewBox="0 0 24 24">
        <circle cx="12" cy="12" r="2"/>
        <ellipse cx="12" cy="12" rx="11" ry="4.2" fill="none" stroke="currentColor" stroke-width="1"/>
        <ellipse cx="12" cy="12" rx="11" ry="4.2" fill="none" stroke="currentColor" stroke-width="1"
                 transform="rotate(60 12 12)"/>
        <ellipse cx="12" cy="12" rx="11" ry="4.2" fill="none" stroke="currentColor" stroke-width="1"
                 transform="rotate(-60 12 12)"/>
    </symbol>

    <symbol id="icon-tailwind" viewBox="0 0 24 24">
        <path d="M12 6c-2.67 0-4.33 1.33-5 4 1-1.33 2.17-1.83 3.5-1.5.76.19 1.31.74 1.91 1.35.98 1 2.12 2.15 4.59 2.15 2.67 0 4.33-1.33 5-4-1 1.33-2.17 1.83-3.5 1.5-.76-.19-1.31-.74-1.91-1.35C15.61 7.15 14.47 6 12 6zm-5 6c-2.67 0-4.33 1.33-5 4 1-1.33 2.17-1.83 3.5-1.5.76.19 1.31.74 1.91 1.35.98 1 2.12 2.15 4.59 2.15 2.67 0 4.33-1.33 5-4-1 1.33-2.17 1.83-3.5 1.5-.76-.19-1.31-.74-1.91-1.35C10.61 13.15 9.47 12 7 12z"
              fill="#06B6D4"/>
    </symbol>

    <symbol id="icon-postgresql" viewBox="0 0 512 512">
        <path fill="#E2E5E7"
              d="M128,0c-17.6,0-32,14.4-32,32v448c0,17.6,14.4,32,32,32h320c17.6,0,32-14.4,32-32V128L352,0H128z"/>
        <path fill="#B0B7BD" d="M384,128h96L352,0v96C352,113.6,366.4,128,384,128z"/>
        <polygon fill="#CAD1D8" points="480,224 384,128 480,128"/>
        <path fill="#F15642"
              d="M416,416c0,8.8-7.2,16-16,16H48c-8.8,0-16-7.2-16-16V256c0-8.8,7.2-16,16-16h352c8.8,0,16,7.2,16,16 V416z"/>
        <path fill="#FFFFFF"
              d="M98.128,314.672c2.944-24.832,40.416-29.296,58.064-15.728c8.704,7.024-0.496,18.16-8.192,12.528 c-9.456-6-30.96-8.816-33.648,4.464c-3.456,20.992,52.208,8.976,51.296,43.008c-0.896,32.496-47.968,33.248-65.632,18.672 c-4.224-3.456-4.096-9.072-1.776-12.544c3.312-3.312,7.024-4.464,11.376-0.88c10.496,7.152,37.488,12.528,39.408-5.648 C147.376,339.632,94.16,351.008,98.128,314.672z"/>
        <path fill="#FFFFFF"
              d="M265.488,369.424l2.048,2.416c8.432,7.68-2.56,20.224-11.136,12.16l-4.336-3.44 c-6.656,4.592-14.448,6.784-24.816,6.784c-22.512,0-48.24-15.504-48.24-46.976s25.584-47.456,48.24-47.456 c23.776,0,47.072,15.984,47.072,47.456C274.32,352.528,271.232,361.504,265.488,369.424z M257.792,340.368 c0-20.336-15.984-30.688-30.56-30.688c-15.728,0-31.216,10.336-31.216,30.688c0,15.504,13.168,30.208,31.216,30.208 c4.592,0,9.072-1.152,13.552-2.304l-14.576-13.44c-6.784-8.192,3.968-19.84,12.528-12.288l14.464,14.448 C256.384,352.528,257.792,347.024,257.792,340.368z"/>
        <path fill="#FFFFFF"
              d="M293.168,303.152c0-4.224,3.584-7.808,8.064-7.808c4.096,0,7.552,3.6,7.552,7.808v64.096h34.8 c12.528,0,12.8,16.752,0,16.752h-42.336c-4.48,0-8.064-3.184-8.064-7.792v-73.056H293.168z"/>
        <path fill="#CAD1D8" d="M400,432H96v16h304c8.8,0,16-7.2,16-16v-16C416,424.8,408.8,432,400,432z"/>
    </symbol>

    <symbol id="icon-github" viewBox="0 0 24 24">
        <path d="M12 0c-6.626 0-12 5.373-12 12 0 5.302 3.438 9.8 8.207 11.387.599.111.793-.261.793-.577v-2.234c-3.338.726-4.033-1.416-4.033-1.416-.546-1.387-1.333-1.756-1.333-1.756-1.089-.745.083-.729.083-.729 1.205.084 1.839 1.237 1.839 1.237 1.07 1.834 2.807 1.304 3.492.997.107-.775.418-1.305.762-1.604-2.665-.305-5.467-1.334-5.467-5.931 0-1.311.469-2.381 1.236-3.221-.124-.303-.535-1.524.117-3.176 0 0 1.008-.322 3.301 1.23.957-.266 1.983-.399 3.003-.404 1.02.005 2.047.138 3.006.404 2.291-1.552 3.297-1.23 3.297-1.23.653 1.653.242 2.874.118 3.176.77.84 1.235 1.911 1.235 3.221 0 4.609-2.807 5.624-5.479 5.921.43.372.823 1.102.823 2.222v3.293c0 .319.192.694.801.576 4.765-1.589 8.199-6.086 8.199-11.386 0-6.627-5.373-12-12-12z"
              fill="currentColor"/>
    </symbol>

    <symbol id="icon-emailjs" viewBox="0 0 24 24">
        <path d="M20 4H4c-1.1 0-1.99.9-1.99 2L2 18c0 1.1.9 2 2 2h16c1.1 0 2-.9 2-2V6c0-1.1-.9-2-2-2zm0 4l-8 5-8-5V6l8 5 8-5v2z"/>
    </symbol>

    <symbol id="icon-responsive" viewBox="0 0 24 24">
        <rect x="2" y="4" width="20" height="16" rx="2" fill="none" stroke="currentColor" stroke-width="2"/>
        <path d="M2 8h20M8 4v4" fill="none" stroke="currentColor" stroke-width="2"/>
    </symbol>

    <symbol id="icon-seo" viewBox="0 0 24 24">
        <circle cx="11" cy="11" r="8" fill="none" stroke="currentColor" stroke-width="2"/>
        <path d="m21 21-4.35-4.35" fill="none" stroke="currentColor" stroke-width="2"/>
    </symbol>

    <symbol id="icon-api" viewBox="0 0 24 24">
        <path d="M4 7h16M4 12h16M4 17h16" fill="none" stroke="currentColor" stroke-width="2"/>
    </symbol>

    <symbol id="icon-default" viewBox="0 0 24 24">
        <circle cx="12" cy="12" r="10" fill="none" stroke="currentColor" stroke-width="2"/>
        <path d="M12 8v8M8 12h8" fill="none" stroke="currentColor" stroke-width="2"/>
    </symbol>
</svg>