<!--
  - Copyright (c) 2025–2026 Paul Viandier
  - All rights reserved.
  -
  - This source code is proprietary.
  - Commercial use, redistribution, or modification is strictly prohibited
  - without prior written permission.
  -
  - See the LICENSE file in the project root for full license terms.
  -->

<svg xmlns="http://www.w3.org/2000/svg" width="13" height="16" viewBox="0 0 13 16" fill="none"
     class="MuiSvgIcon-root MuiSvgIcon-fontSizeMedium css-1upuo0b" focusable="false" role="img"
>
    <path d="M13 7.99887C12.9999 9.47458 12.5822 10.9215 11.7932 12.1797C11.0041 13.4379 9.87448 14.4583 8.5291 15.1282C7.18372 15.798 5.67502 16.0912 4.1698 15.9753C2.66457 15.8594 1.22146 15.3389 0 14.4714L2.76525 11.2517C3.35718 11.6077 4.03556 11.8029 4.73042 11.8172C5.42529 11.8315 6.11147 11.6643 6.71819 11.333C7.3249 11.0016 7.83018 10.518 8.1819 9.93216C8.53362 9.34627 8.71904 8.67929 8.71904 8C8.71904 7.32071 8.53362 6.65373 8.1819 6.06784C7.83018 5.48196 7.3249 4.9984 6.71819 4.66703C6.11147 4.33567 5.42529 4.16851 4.73042 4.1828C4.03556 4.19708 3.35718 4.3923 2.76525 4.7483L0 1.52859C1.22146 0.661094 2.66457 0.140624 4.1698 0.0247215C5.67502 -0.0911812 7.18372 0.201997 8.5291 0.871845C9.87448 1.54169 11.0041 2.56212 11.7932 3.8203C12.5822 5.07848 12.9999 6.52542 13 8.00113V7.99887Z"
          fill="#8A76E8"></path>
</svg>